<svg width="132" height="50" viewBox="0 0 132 50" fill="none" xmlns="http://www.w3.org/2000/svg">
<path fill-rule="evenodd" clip-rule="evenodd" d="M11.2361 5.19494L11.1391 5.09746L8.26437 5.48644V6.00035L8.77828 6.09736C8.98602 6.139 9.09723 6.2644 9.09723 6.8474V14.4865C9.09723 15.0837 8.98602 15.1395 8.19434 15.1811V15.7362H12.167V15.1811C11.3473 15.1395 11.2361 15.0837 11.2361 14.4865V12.0977H11.2778C11.7363 13.0559 12.3198 14.0279 12.9724 14.8892C13.4584 15.5697 14.0139 15.7504 15.0696 15.7504H16.3473V15.2919C16.0416 15.1811 15.8608 15.0141 15.4449 14.5281C14.4862 13.4307 13.7087 12.3201 12.9586 11.1394L13.2639 10.82C14.0139 10.0974 14.8614 9.44439 16.0695 9.19453V8.75066H14.0002C13.6945 8.75066 13.4167 8.84767 13.1669 9.16709C12.917 9.51442 12.6392 9.93085 12.3061 10.4031L11.2778 11.8616H11.2361V5.19494ZM22.2781 15.7502H25.2224V15.1947C24.4028 15.153 24.2921 15.0977 24.2921 14.5V8.65299L24.1946 8.55598L21.3198 8.97288V9.48679L21.8337 9.55588C22.0419 9.59752 22.1527 9.72292 22.1527 10.3059V13.3198C22.1527 13.5559 22.1252 13.9033 22.0419 14.1115C21.9307 14.4588 21.556 14.792 20.9304 14.792C20.1803 14.792 19.7502 14.3476 19.7502 13.2365V8.66671L19.6527 8.5697L16.7779 8.9866V9.50051L17.2639 9.5696C17.5001 9.61124 17.6113 9.73665 17.6113 10.3196V13.8063C17.6113 15.4725 18.6391 15.9447 19.6527 15.9447C20.8613 15.9447 21.5976 15.2917 22.1669 14.9723L22.2781 15.7502ZM28.8194 5.19494L28.7087 5.09746L25.8476 5.48644V6.00035L26.3336 6.09736C26.5697 6.139 26.6805 6.2644 26.6805 6.8474V14.4865C26.6805 15.0837 26.5697 15.1395 25.7501 15.1811V15.7362H29.736V15.1811C28.9448 15.1395 28.8331 15.0837 28.8331 14.4865V5.19494H28.8194ZM35.2364 13.5561C35.2364 14.1391 35.0556 14.8058 34.139 14.8058C33.2087 14.8058 32.5836 13.903 32.5836 12.0697C32.5836 9.95825 33.3748 9.20821 34.1665 9.20821C34.6941 9.20821 34.9865 9.45854 35.1252 9.76423C35.2364 9.97245 35.2364 10.2923 35.2364 10.5976V13.5561ZM37.3753 5.19489L37.2778 5.09741L34.4026 5.48639V6.0003L34.9165 6.09731C35.1252 6.13895 35.2364 6.26435 35.2364 6.84735V8.72269C34.9307 8.61149 34.5417 8.54193 34.0557 8.54193C32.9863 8.54193 32.0555 8.86134 31.4029 9.47273C30.7224 10.0974 30.3334 11.0698 30.3334 12.3475C30.3334 14.4448 31.4029 15.9032 33.195 15.9032C33.7084 15.9032 34.4726 15.6254 35.2364 15.0141V15.7362H38.3056V15.1811C37.486 15.1395 37.3753 15.0841 37.3753 14.4864V5.19489ZM46.5418 10.7506C46.5418 9.40284 45.8613 8.54207 44.4028 8.54207C43.5832 8.54207 42.917 8.98641 41.9861 9.54197L41.8054 8.54207L39.0139 8.95849V9.47288L39.4999 9.54197C39.736 9.58361 39.8477 9.70854 39.8477 10.292V14.5003C39.8477 15.098 39.736 15.1533 38.9169 15.195V15.75H42.7225V15.195L42.4447 15.167C42.139 15.1391 41.9861 15.07 41.9861 14.584V11.1944C41.9861 10.8892 42.0278 10.5423 42.1253 10.3616C42.3056 9.98679 42.7083 9.66689 43.2917 9.66689C44.0139 9.66689 44.3891 10.1112 44.4028 10.9725V14.584C44.4028 15.07 44.2642 15.1391 43.9585 15.167L43.6533 15.195V15.75H47.4584V15.195C46.6388 15.1533 46.528 15.098 46.528 14.5003L46.5418 10.7506ZM50.4721 11.4447C50.4721 10.4031 50.7503 9.20826 51.6527 9.20826C52.5419 9.20826 52.6806 10.2782 52.6806 10.9445C52.6806 11.3339 52.5698 11.4309 52.2362 11.4309L50.4721 11.4447ZM54.2776 13.5424C53.8338 14.3615 53.2361 14.8201 52.3749 14.8201C50.9581 14.8201 50.4721 13.6394 50.4721 12.1251H54.1253C54.6392 12.1251 54.889 11.9865 54.889 11.5284C54.889 10.3615 54.4447 8.55617 51.736 8.55617C49.1807 8.55617 48.2224 10.2224 48.2224 12.2501C48.2224 14.2087 49.0557 15.9449 51.7081 15.917C53.3752 15.917 54.306 15.0837 54.7778 13.8202L54.2776 13.5424ZM40.6252 19.7227C43.1114 19.7227 44.347 20.6114 44.5694 22.5141C45.1945 22.473 45.875 22.4446 46.5418 22.4446C47.2364 22.4446 47.889 22.473 48.5141 22.5141C48.764 20.6114 50.0279 19.7227 52.4583 19.7227C55.264 19.7227 56.4721 20.8612 56.4721 23.32C56.4721 24.0005 56.333 24.5977 56.0836 25.1116C58.25 26.9865 59.2224 29.9034 59.2224 33.875C59.2224 40.7087 55.3615 45.0693 46.5418 45.0693C37.7779 45.0693 33.8611 40.7087 33.8611 33.875C33.8611 29.9034 34.8889 27.0281 37.0141 25.1391C36.7642 24.6251 36.6251 24.0284 36.6251 23.3337C36.6251 20.8475 37.8612 19.7227 40.6252 19.7227ZM42.3477 34.167C42.3477 39.4864 42.9028 42.903 46.5555 42.903C50.2082 42.903 50.7642 39.4864 50.7642 34.167C50.7642 29.167 50.2082 25.4585 46.5555 25.4585C42.9028 25.4585 42.3477 29.167 42.3477 34.167Z" fill="#231F20"/>
<path fill-rule="evenodd" clip-rule="evenodd" d="M46.5417 26.0284C43.4999 26.0284 42.9032 29.0144 42.9032 34.1672C42.9032 40.2641 43.8193 42.3339 46.5417 42.3339C49.2641 42.3339 50.1802 40.2783 50.1802 34.1672C50.1802 29.0144 49.5835 26.0284 46.5417 26.0284ZM46.5417 43.4724C42.1252 43.4724 41.7637 39.0702 41.7637 34.1672C41.7637 29.6812 42.1389 24.8894 46.5417 24.8894C50.9445 24.8894 51.3197 29.6812 51.3197 34.1672C51.3197 39.0702 50.9582 43.4724 46.5417 43.4724Z" fill="#231F20"/>
<path fill-rule="evenodd" clip-rule="evenodd" d="M40.6249 20.2919C38.194 20.2919 37.1941 21.1668 37.1941 23.3195C37.1941 23.903 37.3053 24.4306 37.5277 24.8754C37.6384 25.1115 37.5831 25.3888 37.3886 25.5559C35.3888 27.32 34.4163 30.0277 34.4163 33.8612C34.4163 40.8061 38.6109 44.4863 46.5277 44.4863C54.4578 44.4863 58.6386 40.8061 58.6386 33.8612C58.6386 29.9861 57.6804 27.2637 55.6943 25.5422C55.4998 25.3751 55.444 25.0836 55.5552 24.8612C55.7776 24.4169 55.8888 23.903 55.8888 23.3337C55.8888 21.1526 54.9163 20.3056 52.4443 20.3056C49.7361 20.3056 49.208 21.4588 49.0551 22.5974C49.014 22.9031 48.7499 23.1113 48.4437 23.0975C47.8191 23.0559 47.1945 23.028 46.5135 23.028C45.8468 23.028 45.1942 23.0559 44.5828 23.0975C44.2776 23.1113 44.0135 22.9031 43.9719 22.5974C43.8607 21.4451 43.361 20.2919 40.6249 20.2919ZM46.5414 45.6253C37.9995 45.6253 33.2915 41.4445 33.2915 33.8612C33.2915 29.8754 34.2914 26.9722 36.3333 24.9861C36.1525 24.486 36.0555 23.9167 36.0555 23.3195C36.0555 20.5143 37.5556 19.1533 40.6249 19.1533C43.1665 19.1533 44.6107 20.0557 45.0414 21.9027C46.0138 21.8473 47.0828 21.8473 48.0415 21.9027C48.5001 20.0557 49.9438 19.1533 52.458 19.1533C55.541 19.1533 57.0553 20.5143 57.0553 23.3195C57.0553 23.903 56.9583 24.4585 56.7775 24.9582C58.8052 26.9168 59.8051 29.8333 59.8051 33.8612C59.8051 41.4445 55.0971 45.6253 46.5414 45.6253Z" fill="#231F20"/>
<path fill-rule="evenodd" clip-rule="evenodd" d="M40.6249 19.7227C43.1112 19.7227 44.3468 20.6113 44.5692 22.5141C45.1943 22.473 45.8748 22.4446 46.5415 22.4446C47.2362 22.4446 47.8888 22.473 48.5139 22.5141C48.7637 20.6113 50.0277 19.7227 52.4581 19.7227C55.2638 19.7227 56.4719 20.8612 56.4719 23.32C56.4719 24.0005 56.3328 24.5977 56.0834 25.1116C58.2497 26.9865 59.2222 29.9034 59.2222 33.875C59.2222 40.7087 55.3613 45.0693 46.5415 45.0693C37.7776 45.0693 33.8608 40.7087 33.8608 33.875C33.8608 29.9034 34.8887 27.0281 37.0139 25.139C36.764 24.6251 36.6249 24.0284 36.6249 23.3337C36.6249 20.8475 37.8609 19.7227 40.6249 19.7227ZM42.3474 34.167C42.3474 39.4864 42.9025 42.903 46.5552 42.903C50.208 42.903 50.764 39.4864 50.764 34.167C50.764 29.167 50.208 25.4585 46.5552 25.4585C42.9025 25.4585 42.3474 29.167 42.3474 34.167Z" fill="#ED1C24"/>
<path fill-rule="evenodd" clip-rule="evenodd" d="M46.5417 25.5698C43.1393 25.5698 42.4583 28.8615 42.4583 34.1672C42.4583 39.7643 43.1113 42.7919 46.5417 42.7919C49.972 42.7919 50.625 39.7643 50.625 34.1672C50.6387 28.8615 49.9582 25.5698 46.5417 25.5698ZM46.5417 43.0139C42.9306 43.0139 42.2222 39.7643 42.2222 34.1672C42.2222 29.6948 42.5553 25.3474 46.5417 25.3474C50.528 25.3474 50.8611 29.7085 50.8611 34.1672C50.8611 39.7643 50.1665 43.0139 46.5417 43.0139Z" fill="#231F20"/>
<path fill-rule="evenodd" clip-rule="evenodd" d="M40.6248 19.8335C37.9441 19.8335 36.7502 20.903 36.7502 23.3197C36.7502 23.9722 36.8746 24.5699 37.1387 25.0838C37.1661 25.1254 37.1524 25.1808 37.1108 25.2224C35.0139 27.0699 33.9861 29.903 33.9861 33.8751C33.9861 41.1252 38.3331 44.9587 46.5551 44.9587C54.7772 44.9587 59.1246 41.1252 59.1246 33.8751C59.1246 29.8613 58.1105 27.014 56.0274 25.2082C55.9858 25.1808 55.972 25.1112 55.9995 25.0696C56.2498 24.5557 56.3889 23.9722 56.3889 23.3334C56.3889 20.9167 55.1804 19.8472 52.4854 19.8472C50.1108 19.8472 48.9023 20.7089 48.6524 22.5422C48.6387 22.5975 48.597 22.6392 48.5275 22.6392C47.9024 22.5975 47.2498 22.5696 46.5551 22.5696C45.8746 22.5696 45.2084 22.5975 44.5828 22.6392C44.5274 22.6392 44.472 22.5975 44.4583 22.5422C44.2359 20.6526 43.0552 19.8335 40.6248 19.8335ZM46.5414 45.1669C38.1665 45.1669 33.75 41.2502 33.75 33.8614C33.75 29.8613 34.7778 27.0003 36.8883 25.0975C36.6385 24.5699 36.5136 23.9722 36.5136 23.3197C36.5136 20.7918 37.8191 19.6111 40.6248 19.6111C43.1111 19.6111 44.4025 20.5002 44.6665 22.3888C45.2637 22.3472 45.8884 22.3335 46.5414 22.3335C47.2082 22.3335 47.8191 22.3472 48.4163 22.3888C48.7082 20.4865 50.0001 19.6111 52.458 19.6111C55.3195 19.6111 56.5972 20.7501 56.5972 23.3197C56.5972 23.9722 56.4718 24.5557 56.2219 25.0838C58.3192 26.9445 59.3329 29.8197 59.3329 33.8751C59.3465 39.0284 57.1248 45.1669 46.5414 45.1669ZM106.041 27.9586V21.3889C103.805 20.0834 100.833 19.8056 98.541 19.8056C92.5969 19.8056 89.0829 22.889 89.0829 27.5142C89.0829 31.3472 91.7499 33.4171 96.5691 35.3615C100.375 36.9169 101.124 38.5836 101.166 40.1253C101.124 41.8478 99.9994 43.028 98.0133 43.0001C94.9024 42.931 92.8051 40.653 90.6246 35.8749H89.0275L89.5551 43.0697C91.694 44.4865 94.8054 45.0695 97.7355 45.0695C105.222 45.0004 107.819 41.3476 107.888 37.0144C107.819 32.0419 104.027 30.2087 100.472 28.834C97.8747 27.8615 95.7078 26.6946 95.7078 24.7644C95.7078 23.0282 96.8885 21.8612 98.611 21.8612C100.777 21.8612 102.722 23.3059 104.486 27.9448L106.041 27.9586Z" fill="#231F20"/>
<path fill-rule="evenodd" clip-rule="evenodd" d="M90.0695 42.7639C91.9027 43.8892 94.6667 44.5281 97.7222 44.5281C103.93 44.4722 107.25 41.8753 107.319 37.0002C107.25 32.4172 103.792 30.7084 100.264 29.3474C97.736 28.4029 95.1527 27.1115 95.1527 24.7644C95.1527 22.7366 96.5695 21.3056 98.6114 21.3056C101.222 21.3056 103.222 23.2364 104.861 27.3893H105.5V21.6804C103.805 20.778 101.472 20.3337 98.5414 20.3337C93.0417 20.3337 89.6388 23.0835 89.6388 27.5C89.6388 30.7363 91.5695 32.7366 96.7777 34.8476C100.125 36.2227 101.653 37.8335 101.722 40.0974C101.667 42.2221 100.194 43.5694 98.0137 43.5419C94.8612 43.4723 92.6111 41.403 90.2777 36.4167H89.5972L90.0695 42.7639ZM97.7222 45.6255C95.722 45.6255 91.9722 45.3472 89.2361 43.5419L89.0142 43.3891L88.417 35.3336H90.9586L91.111 35.653C93.292 40.4305 95.2918 42.4029 98.0137 42.4583H98.0691C99.6529 42.4583 100.569 41.6112 100.611 40.1116C100.569 38.8751 100.041 37.375 96.3476 35.8749C91.6528 33.9726 88.5277 31.8195 88.5277 27.5137C88.5277 22.5005 92.4582 19.2505 98.5276 19.2505C101.806 19.2505 104.431 19.8056 106.306 20.9029L106.583 21.0558V28.4999H104.097L103.959 28.153C102.459 24.1946 100.791 22.4168 98.5972 22.4168C97.1667 22.4168 96.2359 23.3476 96.2359 24.7781C96.2359 26.1116 97.5552 27.1669 100.639 28.3338C104.361 29.7639 108.334 31.7362 108.403 37.0144C108.375 40.2086 106.917 45.5417 97.7222 45.6255Z" fill="#231F20"/>
<path fill-rule="evenodd" clip-rule="evenodd" d="M106.042 27.9586V21.389C103.805 20.0834 100.833 19.8057 98.5413 19.8057C92.5973 19.8057 89.0832 22.8891 89.0832 27.5143C89.0832 31.3473 91.7502 33.4171 96.5694 35.3616C100.375 36.917 101.125 38.5837 101.167 40.1254C101.125 41.8479 99.9997 43.0281 98.0137 43.0002C94.9028 42.9311 92.8055 40.653 90.6249 35.875H89.0278L89.5555 43.0697C91.6944 44.4865 94.8057 45.0695 97.7359 45.0695C105.223 45.0004 107.82 41.3477 107.889 37.0145C107.82 32.042 104.028 30.2088 100.472 28.8341C97.875 27.8616 95.7082 26.6947 95.7082 24.7645C95.7082 23.0282 96.8888 21.8613 98.6113 21.8613C100.778 21.8613 102.722 23.306 104.486 27.9449L106.042 27.9586Z" fill="#ED1C24"/>
<path fill-rule="evenodd" clip-rule="evenodd" d="M89.6386 43.0279C91.5413 44.2781 94.4857 44.9865 97.722 44.9865C105.93 44.9032 107.722 40.6117 107.778 37.0143C107.708 32.1393 104.111 30.3477 100.431 28.9309C98.0414 28.0417 95.611 26.8478 95.611 24.7785C95.611 22.9864 96.8196 21.7783 98.6111 21.7783C101.069 21.7783 102.958 23.7085 104.555 27.8614H105.958V21.4305C104.18 20.4027 101.68 19.8892 98.5411 19.8892C92.7637 19.8892 89.18 22.8061 89.18 27.5141C89.18 31.4588 92.1523 33.4728 96.5972 35.2781C100.639 36.9306 101.208 38.7363 101.25 40.1252C101.194 41.9726 99.9721 43.0975 98.0551 43.0975H97.9997C94.9996 43.0279 92.8469 40.9585 90.5552 35.9728H89.1109L89.6386 43.0279ZM97.722 45.181C95.7775 45.181 92.1385 44.917 89.4999 43.167L89.4583 43.1391V43.0975L88.9164 35.792H90.6801L90.7085 35.8474C92.9719 40.8062 95.0833 42.8613 98.0135 42.9309H98.0688C99.8888 42.9309 101.027 41.8614 101.083 40.1394C101.042 38.8196 100.486 37.0834 96.5413 35.4589C92.0141 33.6252 88.9997 31.5695 88.9997 27.5278C88.9997 22.7091 92.6524 19.7227 98.5411 19.7227C101.736 19.7227 104.278 20.2645 106.097 21.3197L106.139 21.3477V28.0559H104.43L104.402 28.0001C102.819 23.8335 101.027 21.9728 98.6111 21.9728C96.9303 21.9728 95.8055 23.0976 95.8055 24.7922C95.8055 26.7503 98.1805 27.9031 100.513 28.778C104.097 30.1532 107.916 32.0418 107.985 37.0422C107.875 42.2225 104.25 45.1114 97.722 45.181ZM71.583 23.7644C71.583 22.6944 71.8329 22.4167 73.111 22.4167C74.8747 22.4167 76.5276 23.6948 76.5276 26.9169C76.5276 29.4032 75.6384 31.6112 72.8053 31.6112H71.5693L71.583 23.7644ZM71.583 33.681H72.7499C73.9169 33.681 74.4862 34.4448 74.8193 35.7087C75.0275 36.5283 75.3053 39.2919 75.7917 40.889C76.68 43.653 78.1389 44.5559 81.8058 44.5559H86.3609V43.0279C84.2911 42.6394 84.0829 40.9865 83.5974 38.4723C83.0414 35.6666 82.4167 33.4728 78.4862 32.4587V32.3896C82.0135 31.9031 84.4998 29.8059 84.4998 26.6808C84.4998 21.3335 79.9996 20.3615 75.4581 20.3615H61.4165V21.889C63.5138 21.9591 63.6941 22.2089 63.6941 24.0284V40.8752C63.6941 42.681 63.5138 42.9446 61.4165 43.0142V44.5417H73.8606V43.0142C71.7638 42.9446 71.583 42.6947 71.583 40.8752V33.681Z" fill="#231F20"/>
<path fill-rule="evenodd" clip-rule="evenodd" d="M71.0415 33.1252H72.7498C74.7221 33.1252 75.1944 34.9589 75.3472 35.5561C75.4305 35.8892 75.5138 36.4448 75.625 37.1669C75.8053 38.3201 76.014 39.7502 76.3192 40.7226C77.1246 43.2363 78.4028 44.0001 81.8056 44.0001H85.8052V43.445C83.875 42.8615 83.5414 41.1116 83.125 38.9448L83.0554 38.57C82.4861 35.7089 81.8889 33.9031 78.3469 32.9865L77.9305 32.8753V31.9034L78.4028 31.8338C81.8194 31.3611 83.9446 29.3755 83.9446 26.6673C83.9446 22.6809 81.3334 20.9031 75.4585 20.9031H61.9587V21.3616C63.8335 21.5007 64.2362 22.0421 64.2362 24.0144V40.8755C64.2362 42.8615 63.8335 43.4034 61.9587 43.5278V43.9864H73.3053V43.5278C71.4305 43.3892 71.0278 42.8478 71.0278 40.8755V33.1252H71.0415ZM86.9168 45.0975H81.8194C77.9442 45.0975 76.2364 44.0417 75.2777 41.042C74.9583 39.9863 74.7363 38.5146 74.5556 37.3339C74.4586 36.6809 74.3748 36.1116 74.2915 35.8339C73.9305 34.4171 73.3333 34.2226 72.7498 34.2226H72.1389V40.8755C72.1389 42.403 72.1389 42.403 73.8888 42.4588L74.4169 42.4725V45.0837H60.875V42.4725L61.4026 42.4588C63.1526 42.403 63.1526 42.403 63.1526 40.8755V24.0144C63.1526 22.4869 63.1526 22.4869 61.4026 22.4306L60.875 22.4169V19.8062H75.4722C85.0552 19.8062 85.0552 24.9722 85.0552 26.6673C85.0552 29.445 83.2915 31.5835 80.3472 32.528C83 33.7645 83.6389 35.8476 84.1391 38.3613L84.2081 38.7365C84.6667 41.1116 84.9307 42.181 86.4583 42.4725L86.9031 42.5563V45.0975H86.9168Z" fill="#231F20"/>
<path fill-rule="evenodd" clip-rule="evenodd" d="M72.1389 31.0557H72.8189C74.9162 31.0557 75.9861 29.6668 75.9861 26.9169C75.9861 24.4444 74.9162 22.9585 73.1246 22.9585C72.1943 22.9585 72.1389 22.9585 72.1389 23.7502V31.0557ZM72.8189 32.153H71.0415V23.7502C71.0415 22.3476 71.5829 21.8474 73.1246 21.8474C75.0416 21.8474 77.083 23.1804 77.083 26.9032C77.083 30.2919 75.5692 32.153 72.8189 32.153Z" fill="#231F20"/>
<path fill-rule="evenodd" clip-rule="evenodd" d="M71.583 23.7644C71.583 22.6945 71.8329 22.4167 73.111 22.4167C74.8747 22.4167 76.5276 23.6949 76.5276 26.917C76.5276 29.4032 75.6384 31.6113 72.8053 31.6113H71.5693L71.583 23.7644ZM71.583 33.6811H72.7499C73.9169 33.6811 74.4862 34.4448 74.8193 35.7088C75.0275 36.5284 75.3053 39.292 75.7918 40.8891C76.68 43.6531 78.1389 44.556 81.8058 44.556H86.361V43.028C84.2911 42.6395 84.0829 40.9865 83.5974 38.4724C83.0414 35.6667 82.4167 33.4729 78.4862 32.4588V32.3897C82.0136 31.9032 84.4998 29.8059 84.4998 26.6809C84.4998 21.3336 79.9996 20.3616 75.4581 20.3616H61.4165V21.8891C63.5138 21.9591 63.6941 22.209 63.6941 24.0285V40.8753C63.6941 42.6811 63.5138 42.9447 61.4165 43.0143V44.5418H73.8606V43.0143C71.7638 42.9447 71.583 42.6948 71.583 40.8753V33.6811Z" fill="#ED1C24"/>
<path fill-rule="evenodd" clip-rule="evenodd" d="M71.5 33.5834H72.7502C73.8471 33.5834 74.5418 34.2502 74.9024 35.6665C74.9862 35.9727 75.0694 36.5557 75.1665 37.2224C75.3472 38.3889 75.5696 39.8336 75.8749 40.8335C76.7503 43.5554 78.1803 44.4446 81.8056 44.4446H86.2638V43.0836C84.3056 42.6809 84.0136 41.1529 83.5693 38.8475L83.4997 38.4722C82.9167 35.5279 82.25 33.5143 78.4581 32.5282L78.389 32.514V32.292L78.4718 32.2778C82.1388 31.7781 84.4168 29.6113 84.4168 26.6528C84.4168 21.0698 79.3056 20.431 75.4726 20.431H61.5001V21.7782C63.5141 21.8473 63.7781 22.1251 63.7781 24.0004V40.8752C63.7781 42.75 63.5141 43.0278 61.5001 43.0974V44.4446H73.7639V43.0974C71.7499 43.0278 71.4863 42.75 71.4863 40.8752V33.5834H71.5ZM86.4582 44.6391H81.8198C78.0971 44.6391 76.6249 43.7362 75.7225 40.9031C75.4163 39.889 75.1949 38.4305 75.0141 37.2641C74.9166 36.5973 74.8196 36.0143 74.75 35.7228C74.4027 34.3751 73.7918 33.7642 72.7777 33.7642H71.6808V40.8752C71.6808 42.6251 71.8057 42.8475 73.8751 42.9171H73.9583V44.6254H61.3193V42.9171H61.4026C63.4724 42.8475 63.5974 42.6251 63.5974 40.8752V24.0141C63.5974 22.2642 63.4724 22.0418 61.4026 21.9727H61.3193V20.2644H75.4584C79.3752 20.2644 84.5829 20.9312 84.5829 26.6807C84.5829 29.6671 82.3612 31.8609 78.7501 32.4449C82.4165 33.4864 83.0975 35.5974 83.6668 38.4585L83.7358 38.8337C84.1669 41.0839 84.4584 42.5697 86.3608 42.9308L86.4308 42.9445V44.6391H86.4582Z" fill="#231F20"/>
<path fill-rule="evenodd" clip-rule="evenodd" d="M71.6805 31.5141H72.819C75.8192 31.5141 76.4439 29.0141 76.4439 26.9168C76.4439 22.8198 73.9027 22.5003 73.1247 22.5003C71.8608 22.5003 71.6805 22.7644 71.6805 23.7506V31.5141ZM72.819 31.6949H71.4997V23.7506C71.4997 22.6115 71.8329 22.3059 73.1247 22.3059C75.7085 22.3059 76.6246 24.6809 76.6246 26.9031C76.6246 30.0003 75.2779 31.6949 72.819 31.6949ZM7.59717 20.3474V21.8754C9.69445 21.945 9.84729 22.1944 9.84729 24.0143V40.8754C9.84729 42.6807 9.68025 42.9447 7.59717 43.0138V44.5418H21.5276C26.3335 44.5418 31.333 43.6531 31.333 38.056C31.333 33.3196 27.4721 32.014 25.0833 31.5971V31.4864C28.6111 30.7917 30.4443 28.931 30.4443 26.0974C30.4443 20.681 24.8472 20.292 20.6664 20.3337L7.59717 20.3474ZM17.7637 23.3339C17.7637 22.6808 17.9028 22.403 19.2779 22.403C20.4861 22.403 22.4863 23.0561 22.4863 26.5138C22.4863 28.6253 21.7363 30.7917 19.0276 30.7917H17.7779V23.3339H17.7637ZM17.7637 32.861H19.0693C21.9303 32.861 23.0419 35.4448 23.0419 37.8336C23.0419 41.3614 21.5834 42.4862 19.8609 42.4862C18.1948 42.4862 17.7637 41.6529 17.7637 40.4864V32.861Z" fill="#231F20"/>
<path fill-rule="evenodd" clip-rule="evenodd" d="M18.3196 33.4171V40.486C18.3196 41.431 18.5695 41.9307 19.8613 41.9307C21.6113 41.9307 22.5004 40.556 22.5004 37.8336C22.5004 35.7922 21.5975 33.4171 19.0696 33.4171H18.3196ZM19.8613 43.0281C18.1114 43.0281 17.2227 42.1668 17.2227 40.486V32.3197H19.0696C22.1943 32.3197 23.5973 35.0975 23.5973 37.8336C23.5836 42.3613 21.2502 43.0281 19.8613 43.0281ZM18.3196 30.2502H19.028C20.9587 30.2502 21.9444 29 21.9444 26.5284C21.9444 23.4307 20.2782 22.9585 19.292 22.9585C18.5141 22.9585 18.3612 23.0559 18.3475 23.0697C18.3475 23.0697 18.3333 23.125 18.3333 23.3337L18.3196 30.2502ZM19.0143 31.3471H17.2085V23.3337C17.2085 22.0972 17.9585 21.8611 19.2641 21.8611C22.0282 21.8611 23.0143 24.2645 23.0143 26.5284C23.0281 29.5839 21.5696 31.3471 19.0143 31.3471Z" fill="#231F20"/>
<path fill-rule="evenodd" clip-rule="evenodd" d="M8.1389 44.0001H21.528C28.0138 44.0001 30.7778 42.2223 30.7778 38.0698C30.7778 34.8198 28.8329 32.8195 24.9862 32.1532L24.5281 32.0695V31.0417L24.972 30.9584C28.2362 30.3195 29.9029 28.6808 29.9029 26.1113C29.9029 24.6945 29.5002 23.6113 28.6806 22.7922C26.9169 21.0559 23.4861 20.8615 20.6804 20.9026H8.1389V21.3612C10 21.5003 10.389 22.0421 10.389 24.0145V40.875C10.389 42.8616 10 43.4029 8.1389 43.5278V44.0001ZM21.528 45.097H7.04199V42.4863L7.56962 42.4721C9.29212 42.4167 9.29212 42.4167 9.29212 40.8892V24.0282C9.29212 22.5002 9.29212 22.5002 7.56962 22.4444L7.04199 22.4306V19.8194H20.6667C23.8614 19.792 27.4029 20.0139 29.4443 22.0279C30.4722 23.042 31.0003 24.4309 31.0003 26.1255C31.0003 27.9999 30.2639 30.3195 27.0139 31.5419C30.2086 32.6113 31.8885 34.8472 31.8885 38.0835C31.8748 44.3617 25.9724 45.097 21.528 45.097Z" fill="#231F20"/>
<path fill-rule="evenodd" clip-rule="evenodd" d="M7.59717 20.3474V21.8754C9.69444 21.945 9.84729 22.1944 9.84729 24.0143V40.8754C9.84729 42.6807 9.68025 42.9447 7.59717 43.0138V44.5418H21.5276C26.3335 44.5418 31.333 43.6531 31.333 38.056C31.333 33.3196 27.4721 32.014 25.0833 31.5971V31.4864C28.6111 30.7917 30.4443 28.931 30.4443 26.0974C30.4443 20.681 24.8472 20.292 20.6663 20.3337L7.59717 20.3474ZM17.7637 23.3339C17.7637 22.6808 17.9028 22.403 19.2779 22.403C20.4861 22.403 22.4863 23.0561 22.4863 26.5138C22.4863 28.6253 21.7363 30.7917 19.0276 30.7917H17.7779V23.3339H17.7637ZM17.7637 32.861H19.0693C21.9303 32.861 23.0419 35.4448 23.0419 37.8336C23.0419 41.3614 21.5834 42.4862 19.8609 42.4862C18.1948 42.4862 17.7637 41.6529 17.7637 40.4864V32.861Z" fill="#ED1C24"/>
<path fill-rule="evenodd" clip-rule="evenodd" d="M17.861 32.9588V40.4861C17.861 41.8201 18.4587 42.3894 19.8613 42.3894C21.889 42.3894 22.958 40.8198 22.958 37.8338C22.958 35.5837 21.9444 32.9588 19.0833 32.9588H17.861ZM19.8613 42.5702C18.347 42.5702 17.6807 41.9309 17.6807 40.4861V32.778H19.0696C22.0698 32.778 23.1387 35.5004 23.1387 37.8338C23.125 41.7501 21.3472 42.5702 19.8613 42.5702ZM17.861 30.7087H19.028C20.5697 30.7087 22.4029 29.9866 22.4029 26.5283C22.4029 22.9031 20.2223 22.5145 19.2915 22.5145C17.9306 22.5145 17.8747 22.7923 17.8747 23.3474V30.7087H17.861ZM19.0142 30.8895H17.667V23.3337C17.667 22.5836 17.9031 22.3196 19.2641 22.3196C20.0416 22.3196 22.5557 22.6253 22.5557 26.5283C22.5695 28.1533 22.1109 30.8895 19.0142 30.8895Z" fill="#231F20"/>
<path fill-rule="evenodd" clip-rule="evenodd" d="M7.68029 44.4585H21.5279C26.0556 44.4585 31.2359 43.7364 31.2359 38.0697C31.2359 35.653 30.1669 32.5974 25.0694 31.7087L24.9999 31.6945V31.431L25.0694 31.4168C28.5277 30.7363 30.3609 28.9031 30.3609 26.1116C30.3609 24.5836 29.9028 23.3613 28.9999 22.4726C27.1388 20.6252 23.7359 20.4169 20.6804 20.4449H7.68029V21.7921C9.76385 21.8749 9.93042 22.2227 9.93042 24.0143V40.8753C9.93042 42.6806 9.76385 43.028 7.68029 43.0975V44.4585ZM21.5279 44.6393H7.5V42.9305H7.58329C9.62472 42.8614 9.74965 42.639 9.74965 40.8891V24.028C9.74965 22.2781 9.62472 22.0557 7.58329 21.9866H7.5V20.2778H20.6662C23.778 20.2362 27.2083 20.4586 29.1249 22.3614C30.0694 23.2922 30.5417 24.5557 30.5417 26.139C30.5417 28.9722 28.7222 30.8617 25.2634 31.5833C29.2914 32.3334 31.4167 34.5835 31.4167 38.0976C31.4303 43.8892 26.1389 44.6393 21.5279 44.6393Z" fill="#231F20"/>
</svg>
